<?xml version="1.0" encoding="iso-8859-1"?>
<!-- Generator: Adobe Illustrator 19.1.0, SVG Export Plug-In . SVG Version: 6.00 Build 0)  -->
<svg version="1.1" id="Capa_1" xmlns="http://www.w3.org/2000/svg" xmlns:xlink="http://www.w3.org/1999/xlink" x="0px" y="0px"
	 viewBox="0 0 499.999 499.999" style="enable-background:new 0 0 499.999 499.999;" xml:space="preserve">
<g>
	<g>
		<path d="M383.881,231.977c-10.017-8.274-22.603-13.383-35.812-13.406c-0.644-0.004-1.295-0.015-1.938,0
			c-9.633,0.227-18.976,2.605-27.375,7.25c-11.646,5.997-20.39,16.144-25.438,27.938c28.064-0.579,55.542-1.129,86.812-1.594
			c1.387-0.021,2.726-0.066,4.094-0.094c-0.811-3.476-1.25-7.09-1.25-10.812C382.975,238.082,383.286,234.979,383.881,231.977
			L383.881,231.977z"/>
		<path d="M389.162,236.852c-0.153,1.447-0.25,2.919-0.25,4.406c0,13.535,6.472,25.549,16.5,33.125
			C405.049,260.207,398.797,246.905,389.162,236.852L389.162,236.852z"/>
		<path d="M95.1,201.009c-22.917,0-41.5,18.583-41.5,41.5s18.583,41.5,41.5,41.5s41.469-18.583,41.469-41.5
			S118.017,201.009,95.1,201.009z M95.1,272.696c-16.668,0-30.188-13.52-30.188-30.188S78.431,212.32,95.1,212.32
			c16.668,0,30.156,13.519,30.156,30.188S111.768,272.696,95.1,272.696z"/>
		<path d="M470.256,239.852c0.512,0.397,1.049,0.659,1.625,0.844c-0.138-10.297-4.007-19.692-10.344-26.875
			c-0.428,0.454-0.841,0.939-1.25,1.406C463.523,222.863,467.881,231.367,470.256,239.852z"/>
		<path d="M461.537,213.821L461.537,213.821L461.537,213.821z"/>
		<path d="M499.163,220.072c-0.212-9.222,0.009-18.454-0.625-27.656c-0.251-3.648-0.324-7.802-1.25-10.906
			c-0.325-1.09-1.367-2.156-2.094-3.031c-0.669-0.806-1.984-0.958-2.094-2c-0.419-3.963-0.463-8.103-0.656-12.156
			c-0.124-2.615,0.025-5.238-0.188-7.844c-0.026,0.175-0.072,0.36-0.125,0.531c-0.265,0.854-1.238,1.303-1.656,2.094
			c-0.444,0.84-0.685,1.782-0.844,2.719c-0.31,1.827-0.301,3.712-0.219,5.562c0.086,1.935,0.6,3.819,0.75,5.75
			c0.095,1.219,0.591,2.57,0.094,3.688c-0.373,0.838-1.246,1.431-2.094,1.781c-1.652,0.682-3.571,0.629-5.344,0.406
			c-1.83-0.229-3.667-0.833-5.25-1.781c-3.117-1.867-5.415-4.854-7.969-7.438c-4.189-4.238-8.435-8.468-12.031-13.219
			c-0.919-1.213-2.146-2.376-2.406-3.875c-0.226-1.303,0.048-2.796,0.812-3.875c1.47-2.072,4.209-2.871,6.5-3.969
			c2.71-1.299,5.567-2.406,8.5-3.062c2.123-0.475,4.324-0.61,6.5-0.625c2.103-0.014,4.259-0.045,6.281,0.531
			c1.848,0.526,3.764,1.268,5.125,2.625c0.181,0.18,0.352,0.387,0.5,0.594c-1.344-3.192-3.358-6.003-5.344-8.844
			c-0.384-0.141-4.759-1.764-7.188-2.344c-1.754-0.419-5.031-0.406-5.031-0.406s-4.24-6.146-6.594-9.031
			c-2.861-3.507-5.883-6.873-9.125-10.031c-3.531-3.44-7.274-6.7-11.219-9.656c-3.9-2.923-12.25-7.969-12.25-7.969l6.875-3.406
			c-1.023-1.131,0.384-4.064-0.688-5.375c-0.813-0.995-2.172-0.995-3.875-1.031c-4.61-0.099-8.93-0.348-13.531-0.656
			c-5.897-0.395-11.735-1.322-17.594-2.094c-5.809-0.766-11.582-1.892-17.406-2.531c-12.048-1.322-24.144-2.137-36.25-2.719
			c-13.261-0.637-26.574-0.424-39.844-0.844c-4.962-0.157-9.917-0.365-14.875-0.625c-4.404-0.231-8.78-0.949-13.188-0.844v-0.001
			c-0.832,1.213-1.739,1.719-2.812,2.094c-3.491,1.218-6.694,1.779-10.781,2.281c-6.247,0.768-12.975,2.037-19.125,3.375
			c-7.867,1.711-15.588,4.027-23.25,6.5c-6.941,2.24-13.797,4.76-20.531,7.562c-6.406,2.666-12.693,5.662-18.875,8.812
			c-5.266,2.683-10.428,5.56-15.5,8.594c-5.206,3.113-10.319,6.4-15.312,9.844c-5.717,3.943-11.243,8.113-16.75,12.344
			c-3.193,2.453-6.413,4.905-9.438,7.562c-2.041,1.794-1.845,2.079-4.5,3.875c-2.035,1.376-4.521,1.18-6.812,0.094
			s-6.094-3.344-6.094-3.344s4.564-3.412,8.156-5.906c-0.066,0.01-0.158,0.054-0.219,0.062c-2.283,0.315-5.221-0.536-7.5-0.875
			c-1.384-0.206-2.822-0.265-4.219-0.188c-3.039,0.169-6.015,0.877-9,1.469c-14.71,2.918-29.413,6.06-43.812,10.25
			c-10.374,3.019-20.642,6.482-30.594,10.688c-3.31,1.399-6.664,2.809-9.625,4.844c-2.73,1.877-5.281,4.095-7.344,6.688
			c-1.947,2.448-3.292,5.358-4.625,8.188c-1.244,2.641-2.548,5.295-3.125,8.156c-0.898,4.453-0.465,9.082-0.438,13.625
			c0.03,4.895,0.176,9.816,0.656,14.688c0.492,4.995,1.219,9.329,1.437,14.344c0.046,1.049,0.028,2.762-0.406,3.719
			c-0.327,0.72-0.396,0.868-0.625,1.625c-0.206,0.682,0.126,1.439,0.406,2.094c0.671,1.568,1.732,2.982,2.938,4.188
			c0.603,0.603,1.474,0.883,2.094,1.469c0.903,0.855,1.428,2.063,2.312,2.938c1.878,1.856,3.938,3.595,6.281,4.812
			c3.314,1.721,7.045,2.554,10.688,3.375c3.923,0.884,7.961,1.326,11.969,1.656c2.786,0.23,5.151,0.529,8.375,0.219
			c2.305-0.043,1.939-0.023,4.031-0.062c-1.708-4.897-2.656-10.177-2.656-15.656c0-26.207,21.262-47.438,47.469-47.438
			s47.438,21.231,47.438,47.438c0,4.827-0.723,9.487-2.062,13.875c1.499-0.026,1.209-0.004,2.812-0.031
			c18.07-0.22,34.225-0.475,49.656-0.719c0.146-4.481,0.396-8.944,0.75-13.406c9.191-3.291,19.552-0.917,29.219-1.531
			c3.144-7.776,6.06-16.964,10.531-24.656c-0.334-3.815-6.09-5.009-7.844-8.438c-3.289-5.432-13.337-8.696-10.594-16.406
			c15.534-14.822,29.941-31.187,46.156-45.312c-1.159,0.074-2.474,0.146-3.438,0.219c-14.348,1.087-28.671,2.562-42.969,4.188
			c-5.39,0.613-15.312,1.375-15.312,1.375s0.05-3.932-0.5-5.781c-0.553-1.857-2.719-5.125-2.719-5.125l8.25-33.219
			c0,0,9.283-4.035,14.062-5.656c7.416-2.515,15.006-4.471,22.625-6.281c7.691-1.828,15.463-3.453,23.281-4.625
			c6.112-0.916,12.277-1.386,18.438-1.875c3.697-0.294,11.094-0.625,11.094-0.625s-3.334,18.496-5.438,27.656
			c-2.215,9.645-7.562,28.719-7.562,28.719s-7.775,0.348-15.062,0.75c7.336,4.599,12.56,12.413,19.094,18.125
			c7.645-3.31,16.032-7.594,24.469-9.906c1.895-3.347,0.64-8.881,0.906-13.031c0.605-5.546-1.956-13.279,2.562-17.25
			c0.125-0.01,0.25-0.021,0.375-0.031l3.5-35.156c0,0,9.711,0.014,14.562,0.219c6.997,0.295,13.993,0.849,20.969,1.469
			c7.139,0.635,14.279,1.304,21.375,2.312c5.163,0.734,10.536,1.65,15.406,2.719c1.167,0.256,2.799,0.994,2.844,2.188
			c0.275,7.346,0.32,14.338,0.406,21.5c0.092,7.649,0.094,22.937,0.094,22.937s-5.229,0.028-9.062,0.062
			c-0.156,3.826-0.331,7.68-0.094,11.406c7.652,3.226,16.879,5.817,24.344,10.5c4.07-0.169,5.262-5.998,8.719-7.75
			c5.385-3.392,8.702-13.368,16.406-10.656c15.454,16.219,32.575,31.104,47.125,48.219c-3.08,6.485-8.787,11.229-14.125,16.188
			c7.374,8.244,11.908,19.075,12.062,30.969c2.21-0.339,4.468-0.669,6.438,0.031c1.149,0.193,2.482,0.127,3.875,0.031
			c0.386-0.305,0.778-0.596,1.156-0.906c2.521-2.067,4.804-4.414,6.906-6.906c1.325-1.57,3.019-3.05,3.562-5.031
			C500.474,225.352,499.297,225.922,499.163,220.072L499.163,220.072z M65.1,164.977c-2.9,2.933-6.396,5.185-9.625,7.75
			c-4.519,3.59-8.847,7.449-13.625,10.688c-2.073,1.405-4.169,2.835-6.5,3.75c-2.067,0.811-4.303,1.148-6.5,1.469
			c-4.088,0.596-8.213,0.9-12.344,0.844c-1.474-0.02-3.165,0.388-4.406-0.406c-0.818-0.523-0.851-1.783-1.469-2.531
			c-0.945-1.146-2.175-2.063-3.375-2.938c-0.659-0.48-1.953-0.448-2.094-1.25c-0.42-2.397,2.955-3.886,4.625-5.656
			c1.561-1.654,2.911-3.769,5.031-4.594c0.977-0.38,2.105,0.241,3.125,0c2.585-0.61,4.682-2.522,7.125-3.562
			c3.07-1.307,6.269-2.33,9.438-3.375c3.19-1.052,6.386-2.171,9.656-2.938c2.896-0.679,5.829-1.1,8.781-1.469
			c2.504-0.312,5.041-0.52,7.562-0.625c1.221-0.051,2.545-0.406,3.781-0.438c0.742-0.019,1.462,0.065,2.094,0.438
			c0.62,0.365,1.088,1.189,1.031,1.906C67.314,163.28,65.974,164.093,65.1,164.977L65.1,164.977z M192.006,137.602
			c0,0-3.456-0.795-5.125-0.625c-1.433,0.146-4.058,1.004-5.969,2c-1.667,0.869-3.672,2.151-5.125,3.344
			c-1.566,1.286-3.363,3.579-4.094,5.469c-1.062,2.743,0,7.938,0,7.938s-4.15,0.376-6.812,0.656
			c-2.648,0.279-7.969,0.625-7.969,0.625s2.584-10.739,4.406-15.938c1.232-3.515,4.406-10.281,4.406-10.281s3.894-3.794,6.062-5.437
			c4.156-3.148,8.681-5.809,13.219-8.375c4.759-2.691,14.656-7.344,14.656-7.344C197.441,118.719,194.247,128.522,192.006,137.602
			L192.006,137.602z M449.381,132.071c-5.946,2.791-12.568,3.867-18.969,5.344c-6.122,1.412-18.531,3.344-18.531,3.344
			l-7.344-41.719c0,0,6.792,1.645,10.062,2.844c4.579,1.678,9.104,3.599,13.312,6.062c5.264,3.082,10.196,6.79,14.781,10.812
			c3.12,2.737,6.392,5.481,8.594,9C453.235,130.871,452.238,130.73,449.381,132.071L449.381,132.071z"/>
		<path d="M450.117,214.14c6.76-6.687,13.453-13.403,20.188-20.117c-13.448-13.438-26.896-26.855-40.344-40.293
			c-6.718,6.74-13.668,13.441-20.338,20.229c-10.725-6.44-22.62-11.274-34.62-14.24c0-9.521,0-19.219,0-28.219c-19,0-38,0-57,0
			c0,8,0,16.636,0,25.126c-1,6.059-9.167,4.513-13.505,7.312c-7.202,2.66-14.024,6.084-20.659,10.031
			c-6.671-6.787-13.393-13.479-20.111-20.219c-13.438,13.438-26.852,26.875-40.29,40.312c6.74,6.718,13.443,13.407,20.23,20.078
			c-6.433,10.699-11.253,22.359-14.301,34.359c-9.5,0-19.364,0-28.364,0c0,19,0,38,0,57c9,0,18.864,0,28.364,0
			c3.102,12,7.782,23.812,14.281,34.485c-6.729,6.729-13.458,13.498-20.188,20.227c13.438,13.448,26.875,26.915,40.312,40.363
			c6.713-6.735,13.288-13.417,19.974-20.178c10.727,6.405,22.255,11.217,34.255,14.26c0,9.5,0,18.843,0,28.843c19,0,38,0,57,0
			c0-10,0-19.343,0-28.843c12-3.036,23.892-7.848,34.62-14.25c6.687,6.76,13.534,13.453,20.247,20.188
			c13.448-13.448,26.941-26.896,40.389-40.344c-6.729-6.729-13.436-13.537-20.165-20.266c6.425-10.721,11.207-22.485,14.273-34.485
			c9.5,0,18.636,0,28.636,0c0-19,0-38,0-57c-10,0-19.136,0-28.636,0C461.306,236.499,456.52,224.882,450.117,214.14L450.117,214.14z
			 M362.555,341.906c-29.257,7.309-62.197-7.76-75.188-34.844c-14.128-27.403-6.082-64.302,18.875-82.563
			c11.563-8.869,25.981-13.916,40.625-13.844c33.664-0.785,64.505,27.784,66.403,61.433
			C416.08,303.676,393.424,335.026,362.555,341.906L362.555,341.906z"/>
	</g>
</g>
<g>
</g>
<g>
</g>
<g>
</g>
<g>
</g>
<g>
</g>
<g>
</g>
<g>
</g>
<g>
</g>
<g>
</g>
<g>
</g>
<g>
</g>
<g>
</g>
<g>
</g>
<g>
</g>
<g>
</g>
</svg>
